<?xml version="1.0" encoding="UTF-8"?>
<svg width="250px" height="116px" viewBox="0 0 250 116" version="1.1" xmlns="http://www.w3.org/2000/svg" xmlns:xlink="http://www.w3.org/1999/xlink">
    <!-- Generator: Sketch 63.1 (92452) - https://sketch.com -->
    <title>没有问题</title>
    <desc>Created with Sketch.</desc>
    <defs>
        <linearGradient x1="50%" y1="0%" x2="50%" y2="100%" id="linearGradient-1">
            <stop stop-color="#C1DBFE" offset="0%"></stop>
            <stop stop-color="#FFFFFF" offset="100%"></stop>
        </linearGradient>
        <linearGradient x1="50%" y1="0%" x2="50%" y2="100%" id="linearGradient-2">
            <stop stop-color="#9CB8F4" offset="0%"></stop>
            <stop stop-color="#DFEBFD" stop-opacity="0" offset="100%"></stop>
        </linearGradient>
        <linearGradient x1="62.6864756%" y1="84.2292626%" x2="62.6864756%" y2="0%" id="linearGradient-3">
            <stop stop-color="#A1BBFE" offset="0%"></stop>
            <stop stop-color="#7FACF3" offset="100%"></stop>
        </linearGradient>
        <rect id="path-4" x="15" y="32" width="19" height="6"></rect>
        <filter x="-5.3%" y="-16.7%" width="110.5%" height="166.7%" filterUnits="objectBoundingBox" id="filter-5">
            <feOffset dx="0" dy="2" in="SourceAlpha" result="shadowOffsetOuter1"></feOffset>
            <feColorMatrix values="0 0 0 0 0.349019608   0 0 0 0 0.556862745   0 0 0 0 0.933333333  0 0 0 1 0" type="matrix" in="shadowOffsetOuter1"></feColorMatrix>
        </filter>
        <rect id="path-6" x="15" y="45" width="30" height="6"></rect>
        <filter x="-3.3%" y="-16.7%" width="106.7%" height="166.7%" filterUnits="objectBoundingBox" id="filter-7">
            <feOffset dx="0" dy="2" in="SourceAlpha" result="shadowOffsetOuter1"></feOffset>
            <feColorMatrix values="0 0 0 0 0.349019608   0 0 0 0 0.556862745   0 0 0 0 0.933333333  0 0 0 1 0" type="matrix" in="shadowOffsetOuter1"></feColorMatrix>
        </filter>
    </defs>
    <g id="2.0" stroke="none" stroke-width="1" fill="none" fill-rule="evenodd">
        <g id="空页面" transform="translate(-86.000000, -817.000000)">
            <g id="没有问题" transform="translate(86.000000, 783.000000)">
                <rect id="矩形备份-2" x="1" y="0" width="253" height="150"></rect>
                <path d="M249.283495,150 C219.862798,113.493778 172.799938,92 122.264363,92 C73.2903413,92 29.4394504,113.93473 1.59161573e-12,148.515879 C1.59161573e-12,148.515879 249.283495,150 249.283495,150 Z" id="椭圆形" fill="url(#linearGradient-1)"></path>
                <g id="3.通用组件/彩色版/盆栽03备份-4" transform="translate(62.000000, 92.000000)">
                    <g id="分组">
                        <g transform="translate(3.760000, 0.000000)" fill="#BAE637" id="Fill-1">
                            <path d="M2.99249766,11.598643 L0.00120155844,11.598643 L0.00120155844,1.47662267 C0.00120155844,0.670954584 0.667318442,0.0178204584 1.48903013,0.0178204584 L1.50464571,0.0178204584 C2.3263574,0.0178204584 2.99249766,0.670954584 2.99249766,1.47662267 L2.99249766,11.598643 Z"></path>
                        </g>
                        <path d="M8.24,14.0762463 L5.24,14.0762463 L5.24,8.79073969 C5.24,8.00634764 5.89142187,7.37047898 6.695,7.37047898 L6.78502344,7.37047898 C7.58857812,7.37047898 8.24,8.00634764 8.24,8.79073969 L8.24,14.0762463 Z" id="Fill-3" fill="#389E0D"></path>
                        <path d="M4.2,11.5933529 L1.18,11.5933529 L1.18,5.84669955 C1.18,5.05786952 1.83312921,4.41837732 2.63878083,4.41837732 L2.74121917,4.41837732 C3.54687079,4.41837732 4.2,5.05786952 4.2,5.84669955 L4.2,11.5933529 Z" id="Fill-5" fill="#7CB305"></path>
                        <g transform="translate(0.000000, 11.241447)" fill="#3B68B8" id="Fill-7">
                            <path d="M8.41844772,8.74710648 L0.562255965,8.74710648 C0.251726681,8.74710648 0,8.50106555 0,8.19755019 L0,0.564717168 C0,0.261201812 0.251726681,0.015160884 0.562255965,0.015160884 L8.41844772,0.015160884 C8.72897701,0.015160884 8.98070369,0.261201812 8.98070369,0.564717168 L8.98070369,8.19755019 C8.98070369,8.50106555 8.72897701,8.74710648 8.41844772,8.74710648"></path>
                        </g>
                    </g>
                </g>
                <g id="3.通用组件/彩色版/盆栽03备份-5" transform="translate(199.000000, 95.000000)">
                    <g id="分组" transform="translate(0.848485, 0.000000)">
                        <g transform="translate(3.525000, 0.000000)" fill="#BAE637" id="Fill-1">
                            <path d="M2.80546656,10.8949656 L0.00112646104,10.8949656 L0.00112646104,1.38703753 C0.00112646104,0.630248477 0.625611039,0.01673931 1.39596575,0.01673931 L1.41060536,0.01673931 C2.18096006,0.01673931 2.80546656,0.630248477 2.80546656,1.38703753 L2.80546656,10.8949656 Z"></path>
                        </g>
                        <path d="M7.725,13.2222553 L4.9125,13.2222553 L4.9125,8.25741479 C4.9125,7.52061097 5.52320801,6.9233198 6.2765625,6.9233198 L6.36095947,6.9233198 C7.11429199,6.9233198 7.725,7.52061097 7.725,8.25741479 L7.725,13.2222553 Z" id="Fill-3" fill="#389E0D"></path>
                        <path d="M3.9375,10.8899964 L1.10625,10.8899964 L1.10625,5.49198646 C1.10625,4.75101391 1.71855863,4.15031903 2.47385703,4.15031903 L2.56989297,4.15031903 C3.32519137,4.15031903 3.9375,4.75101391 3.9375,5.49198646 L3.9375,10.8899964 Z" id="Fill-5" fill="#7CB305"></path>
                        <g transform="translate(0.000000, 10.559440)" fill="#3B68B8" id="Fill-7">
                            <path d="M7.89229474,8.21642875 L0.527114967,8.21642875 C0.235993764,8.21642875 0,7.98531487 0,7.70021347 L0,0.530456373 C0,0.245354973 0.235993764,0.0142410891 0.527114967,0.0142410891 L7.89229474,0.0142410891 C8.18341594,0.0142410891 8.41940971,0.245354973 8.41940971,0.530456373 L8.41940971,7.70021347 C8.41940971,7.98531487 8.18341594,8.21642875 7.89229474,8.21642875"></path>
                        </g>
                    </g>
                </g>
                <g id="3.通用组件/彩色版/盆栽03备份-6" transform="translate(85.203704, 115.000000)">
                    <g id="分组" transform="translate(0.796296, 0.000000)">
                        <g transform="translate(4.308333, 0.000000)" fill="#BAE637" id="Fill-1">
                            <path d="M3.42890357,11.9844622 L0.00137678571,11.9844622 L0.00137678571,1.52574128 C0.00137678571,0.693273325 0.764635714,0.018413241 1.70618036,0.018413241 L1.72407321,0.018413241 C2.66561786,0.018413241 3.42890357,0.693273325 3.42890357,1.52574128 L3.42890357,11.9844622 Z"></path>
                        </g>
                        <path d="M9.44166667,14.5444808 L6.00416667,14.5444808 L6.00416667,9.08315627 C6.00416667,8.27267207 6.75058757,7.61565178 7.67135417,7.61565178 L7.77450602,7.61565178 C8.69524577,7.61565178 9.44166667,8.27267207 9.44166667,9.08315627 L9.44166667,14.5444808 Z" id="Fill-3" fill="#389E0D"></path>
                        <path d="M4.8125,11.978996 L1.35208333,11.978996 L1.35208333,6.0411851 C1.35208333,5.22611531 2.10046055,4.56535093 3.02360304,4.56535093 L3.14098029,4.56535093 C4.06412278,4.56535093 4.8125,5.22611531 4.8125,6.0411851 L4.8125,11.978996 Z" id="Fill-5" fill="#7CB305"></path>
                        <g transform="translate(0.000000, 11.615384)" fill="#3B68B8" id="Fill-7">
                            <path d="M9.64613802,9.03807163 L0.644251627,9.03807163 C0.288436822,9.03807163 0,8.78384635 0,8.47023481 L0,0.58350201 C0,0.269890471 0.288436822,0.0156651981 0.644251627,0.0156651981 L9.64613802,0.0156651981 C10.0019528,0.0156651981 10.2903896,0.269890471 10.2903896,0.58350201 L10.2903896,8.47023481 C10.2903896,8.78384635 10.0019528,9.03807163 9.64613802,9.03807163"></path>
                        </g>
                    </g>
                </g>
                <polygon id="路径-46" fill="url(#linearGradient-2)" opacity="0.602213542" points="104.375 101.775869 94.4320579 127.874426 163.244694 127.874426 150.833099 101.775869"></polygon>
                <g id="编组" transform="translate(88.000000, 34.000000)">
                    <rect id="矩形" fill="#7AA1F8" x="17" y="0" width="75" height="62" rx="3"></rect>
                    <path d="M3,9 L78,9 C79.6568542,9 81,10.3431458 81,12 L81,82.1235549 C81,83.7804091 79.6568542,85.1235549 78,85.1235549 C77.5301053,85.1235549 77.066781,85.0131748 76.6473602,84.8013087 L55.6308752,74.185047 L55.6308752,74.185047 L3,74.185047 C1.34314575,74.185047 6.46995335e-16,72.8419013 0,71.185047 L0,12 C-2.02906125e-16,10.3431458 1.34314575,9 3,9 Z" id="矩形" fill="url(#linearGradient-3)"></path>
                    <polygon id="路径-5" fill="#6E96EF" points="81 12 93 62 81 62"></polygon>
                    <g id="矩形">
                        <use fill="black" fill-opacity="1" filter="url(#filter-5)" xlink:href="#path-4"></use>
                        <use fill="#FFFFFF" fill-rule="evenodd" xlink:href="#path-4"></use>
                    </g>
                    <g id="矩形备份-2">
                        <use fill="black" fill-opacity="1" filter="url(#filter-7)" xlink:href="#path-6"></use>
                        <use fill="#FFFFFF" fill-rule="evenodd" xlink:href="#path-6"></use>
                    </g>
                </g>
            </g>
        </g>
    </g>
</svg>