<?xml version="1.0" encoding="UTF-8"?>
<svg width="250px" height="123px" viewBox="0 0 250 123" version="1.1" xmlns="http://www.w3.org/2000/svg" xmlns:xlink="http://www.w3.org/1999/xlink">
    <!-- Generator: Sketch 63.1 (92452) - https://sketch.com -->
    <title>客户活跃度低</title>
    <desc>Created with Sketch.</desc>
    <defs>
        <linearGradient x1="50%" y1="0%" x2="50%" y2="100%" id="linearGradient-1">
            <stop stop-color="#C1DBFE" offset="0%"></stop>
            <stop stop-color="#FFFFFF" offset="100%"></stop>
        </linearGradient>
        <linearGradient x1="15.3295221%" y1="62.5%" x2="94.3503219%" y2="50%" id="linearGradient-2">
            <stop stop-color="#F6F6F6" offset="0%"></stop>
            <stop stop-color="#5780DD" offset="100%"></stop>
        </linearGradient>
        <linearGradient x1="50%" y1="0%" x2="50%" y2="100%" id="linearGradient-3">
            <stop stop-color="#89B1F7" offset="0%"></stop>
            <stop stop-color="#9BB9FC" offset="100%"></stop>
        </linearGradient>
        <linearGradient x1="50%" y1="0%" x2="50%" y2="100%" id="linearGradient-4">
            <stop stop-color="#FFFFFF" stop-opacity="0" offset="0%"></stop>
            <stop stop-color="#FFFFFF" offset="100%"></stop>
        </linearGradient>
    </defs>
    <g id="2.0" stroke="none" stroke-width="1" fill="none" fill-rule="evenodd">
        <g id="空页面" transform="translate(-88.000000, -1202.000000)">
            <g id="客户活跃度低" transform="translate(88.000000, 1202.000000)">
                <path d="M249.283495,123 C219.862798,86.4937779 172.799938,65 122.264363,65 C73.2903413,65 29.4394504,86.9347296 0,121.515879 C0,121.515879 249.283495,123 249.283495,123 Z" id="椭圆形" fill="url(#linearGradient-1)"></path>
                <path d="M63,44 C63,55.5979797 72.4020203,65 84,65 C95.5979797,65 105,55.5979797 105,44" id="路径" stroke="url(#linearGradient-2)" stroke-width="4" stroke-linecap="round" stroke-linejoin="round" transform="translate(84.000000, 54.500000) rotate(-270.000000) translate(-84.000000, -54.500000) "></path>
                <circle id="椭圆形备份-16" fill="#5780DD" cx="76.5" cy="64.5" r="4.5"></circle>
                <g id="3.通用组件/彩色版/盆栽03备份-4" transform="translate(60.000000, 72.000000)">
                    <g id="分组">
                        <g transform="translate(2.506667, 0.000000)" fill="#BAE637" id="Fill-1">
                            <path d="M1.99499844,7.73242869 L0.000801038961,7.73242869 L0.000801038961,0.98441511 C0.000801038961,0.447303056 0.444878961,0.0118803056 0.992686753,0.0118803056 L1.00309714,0.0118803056 C1.55090494,0.0118803056 1.99499844,0.447303056 1.99499844,0.98441511 L1.99499844,7.73242869 Z"></path>
                        </g>
                        <path d="M5.49333333,9.38416422 L3.49333333,9.38416422 L3.49333333,5.86049313 C3.49333333,5.33756509 3.92761458,4.91365266 4.46333333,4.91365266 L4.52334896,4.91365266 C5.05905208,4.91365266 5.49333333,5.33756509 5.49333333,5.86049313 L5.49333333,9.38416422 Z" id="Fill-3" fill="#389E0D"></path>
                        <path d="M2.8,7.72890192 L0.786666667,7.72890192 L0.786666667,3.8977997 C0.786666667,3.37191302 1.22208614,2.94558488 1.75918722,2.94558488 L1.82747944,2.94558488 C2.36458053,2.94558488 2.8,3.37191302 2.8,3.8977997 L2.8,7.72890192 Z" id="Fill-5" fill="#7CB305"></path>
                        <g transform="translate(0.000000, 7.494298)" fill="#3B68B8" id="Fill-7">
                            <path d="M5.61229848,5.83140432 L0.37483731,5.83140432 C0.167817787,5.83140432 0,5.66737703 0,5.46503346 L0,0.376478112 C0,0.174134541 0.167817787,0.010107256 0.37483731,0.010107256 L5.61229848,0.010107256 C5.819318,0.010107256 5.98713579,0.174134541 5.98713579,0.376478112 L5.98713579,5.46503346 C5.98713579,5.66737703 5.819318,5.83140432 5.61229848,5.83140432"></path>
                        </g>
                    </g>
                </g>
                <g id="3.通用组件/彩色版/盆栽03备份-5" transform="translate(197.000000, 68.000000)">
                    <g id="分组" transform="translate(0.848485, 0.000000)">
                        <g transform="translate(3.525000, 0.000000)" fill="#BAE637" id="Fill-1">
                            <path d="M2.80546656,10.8949656 L0.00112646104,10.8949656 L0.00112646104,1.38703753 C0.00112646104,0.630248477 0.625611039,0.01673931 1.39596575,0.01673931 L1.41060536,0.01673931 C2.18096006,0.01673931 2.80546656,0.630248477 2.80546656,1.38703753 L2.80546656,10.8949656 Z"></path>
                        </g>
                        <path d="M7.725,13.2222553 L4.9125,13.2222553 L4.9125,8.25741479 C4.9125,7.52061097 5.52320801,6.9233198 6.2765625,6.9233198 L6.36095947,6.9233198 C7.11429199,6.9233198 7.725,7.52061097 7.725,8.25741479 L7.725,13.2222553 Z" id="Fill-3" fill="#389E0D"></path>
                        <path d="M3.9375,10.8899964 L1.10625,10.8899964 L1.10625,5.49198646 C1.10625,4.75101391 1.71855863,4.15031903 2.47385703,4.15031903 L2.56989297,4.15031903 C3.32519137,4.15031903 3.9375,4.75101391 3.9375,5.49198646 L3.9375,10.8899964 Z" id="Fill-5" fill="#7CB305"></path>
                        <g transform="translate(0.000000, 10.559440)" fill="#3B68B8" id="Fill-7">
                            <path d="M7.89229474,8.21642875 L0.527114967,8.21642875 C0.235993764,8.21642875 0,7.98531487 0,7.70021347 L0,0.530456373 C0,0.245354973 0.235993764,0.0142410891 0.527114967,0.0142410891 L7.89229474,0.0142410891 C8.18341594,0.0142410891 8.41940971,0.245354973 8.41940971,0.530456373 L8.41940971,7.70021347 C8.41940971,7.98531487 8.18341594,8.21642875 7.89229474,8.21642875"></path>
                        </g>
                    </g>
                </g>
                <g id="3.通用组件/彩色版/盆栽03备份-6" transform="translate(83.203704, 94.000000)">
                    <g id="分组" transform="translate(0.796296, 0.000000)">
                        <g transform="translate(3.133333, 0.000000)" fill="#BAE637" id="Fill-1">
                            <path d="M2.49374805,8.71597248 L0.0010012987,8.71597248 L0.0010012987,1.10963002 C0.0010012987,0.504198782 0.556098701,0.013391448 1.24085844,0.013391448 L1.25387143,0.013391448 C1.93863117,0.013391448 2.49374805,0.504198782 2.49374805,1.10963002 L2.49374805,8.71597248 Z"></path>
                        </g>
                        <path d="M6.86666667,10.5778043 L4.36666667,10.5778043 L4.36666667,6.60593183 C4.36666667,6.01648878 4.90951823,5.53865584 5.57916667,5.53865584 L5.6541862,5.53865584 C6.3238151,5.53865584 6.86666667,6.01648878 6.86666667,6.60593183 L6.86666667,10.5778043 Z" id="Fill-3" fill="#389E0D"></path>
                        <path d="M3.5,8.71199711 L0.983333333,8.71199711 L0.983333333,4.39358917 C0.983333333,3.80081113 1.52760767,3.32025522 2.19898403,3.32025522 L2.28434931,3.32025522 C2.95572566,3.32025522 3.5,3.80081113 3.5,4.39358917 L3.5,8.71199711 Z" id="Fill-5" fill="#7CB305"></path>
                        <g transform="translate(0.000000, 8.447552)" fill="#3B68B8" id="Fill-7">
                            <path d="M7.0153731,6.573143 L0.468546638,6.573143 C0.209772234,6.573143 0,6.38825189 0,6.16017077 L0,0.424365098 C0,0.196283979 0.209772234,0.0113928713 0.468546638,0.0113928713 L7.0153731,0.0113928713 C7.27414751,0.0113928713 7.48391974,0.196283979 7.48391974,0.424365098 L7.48391974,6.16017077 C7.48391974,6.38825189 7.27414751,6.573143 7.0153731,6.573143"></path>
                        </g>
                    </g>
                </g>
                <rect id="矩形" fill="#B3C6F5" x="111" y="0" width="65" height="78" rx="8"></rect>
                <rect id="矩形备份-4" fill="url(#linearGradient-3)" x="91" y="9" width="77" height="85" rx="8"></rect>
                <path d="M99,9 L160,9 C164.418278,9 168,12.581722 168,17 L168,23 L168,23 L91,23 L91,17 C91,12.581722 94.581722,9 99,9 Z" id="矩形备份-5" fill="#7AA1F8"></path>
                <circle id="椭圆形" fill="#FFFFFF" cx="98.5" cy="16.5" r="2.5"></circle>
                <circle id="椭圆形备份-10" fill="#FFFFFF" cx="105.5" cy="16.5" r="2.5"></circle>
                <circle id="椭圆形备份-11" fill="#FFFFFF" cx="112.5" cy="16.5" r="2.5"></circle>
                <circle id="椭圆形备份-16" fill="#FFFFFF" cx="140.5" cy="75.5" r="4.5"></circle>
                <g id="活跃度" transform="translate(110.000000, 32.000000)" fill-rule="nonzero">
                    <path d="M19.4856461,28.2368421 L0.611111111,28.2368421 L0.611111111,24.9345667 C0.611111111,23.9520825 3.11408428,22.5103069 6.96534441,21.0968581 C10.8072913,19.6887343 12.0349627,18.4991252 12.0349627,15.9527206 C12.0349627,14.4240421 10.8618021,14.9232719 10.3473327,12.1245529 C10.1343453,10.9637512 9.09730964,12.1056931 8.90024968,9.45548565 C8.90024968,8.40055769 9.46592276,8.13836962 9.46592276,8.13836962 C9.46592276,8.13836962 9.1775173,6.574782 9.06469439,5.37134244 C8.9249582,3.87250677 9.92534919,0 15.2560795,0 C20.5866578,0 21.5882652,3.87250677 21.4449178,5.37337634 C21.3336534,6.5768159 21.0466164,8.14040352 21.0466164,8.14040352 C21.0466164,8.14040352 21.6111111,8.40251763 21.6111111,9.45751955 C21.413481,12.107727 20.3769015,10.9657851 20.1634579,12.1265128 C19.647734,14.9252688 18.4763981,14.4260021 18.4763981,15.9547545 C18.4763981,16.5934728 18.5534126,17.1463605 18.7297935,17.638638 C16.4196608,20.8952432 16.7372223,25.3462278 19.4856461,28.2368421 L19.4856461,28.2368421 Z" id="路径" fill="#FFFFFF"></path>
                    <path d="M32.499517,14.4968166 C33.0545485,17.2653754 31.2602503,19.5065597 31.2602503,19.5065597 C32.8031849,14.8711512 26.6886153,8.95977287 24.3094753,8.39473684 C27.265985,15.5703041 23.9835082,17.6397835 23.9835082,17.6397835 C24.2622303,13.9671598 21.7735784,13.3857043 21.7735784,13.3857043 C23.2244359,16.3214029 20.539293,17.1501077 19.4118732,20.4248353 C18.0058868,28.3561033 28.0001117,32.1464612 33.2959884,25.8159446 C37.1706623,20.8414702 32.499517,14.4968166 32.499517,14.4968166 Z M27.7885988,18.2824623 C30.8645831,22.6989691 30.1427931,25.4015554 28.4181949,26.5174905 C27.1091892,27.3649709 25.8399954,27.3791078 24.7922772,26.2090179 C23.9984522,25.3215565 24.1154361,24.4457654 24.5260473,23.6948138 C25.1929646,22.4800305 28.1345303,20.4341495 27.7885988,18.2824623 Z" id="形状" fill="#5780DD"></path>
                </g>
                <path d="M101,52 C101,66.9116882 113.088312,79 128,79 C142.911688,79 155,66.9116882 155,52" id="路径" stroke="url(#linearGradient-4)" stroke-width="2" stroke-linecap="round" stroke-linejoin="round"></path>
                <circle id="椭圆形" fill="#FFFFFF" cx="103.5" cy="64.5" r="2.5"></circle>
            </g>
        </g>
    </g>
</svg>